/* Created with The GIMP */
#define bayes_width 64
#define bayes_height 64
static unsigned char bayes_bits[] = {
   0x00, 0x00, 0x00, 0x00, 0x00, 0x00, 0x00, 0x00, 0x00, 0x00, 0x00, 0x00,
   0x00, 0x00, 0x00, 0x00, 0x00, 0x00, 0x00, 0x00, 0x00, 0x00, 0x00, 0x00,
   0x00, 0x00, 0x00, 0x00, 0x00, 0x00, 0x00, 0x00, 0x00, 0x00, 0x00, 0x00,
   0x00, 0x55, 0xb5, 0xba, 0x00, 0x00, 0x00, 0x20, 0xfb, 0xae, 0x6a, 0xfb,
   0x00, 0x00, 0x00, 0xed, 0xf6, 0xdb, 0xef, 0xef, 0x00, 0x00, 0xc0, 0xba,
   0xdf, 0x7f, 0xb7, 0x7d, 0x00, 0x00, 0x40, 0xed, 0x7f, 0xfb, 0xff, 0xff,
   0x00, 0x00, 0xc0, 0x76, 0xd5, 0xee, 0xee, 0x57, 0x00, 0x00, 0x80, 0x5b,
   0x08, 0xbd, 0x7f, 0x1b, 0x00, 0x00, 0x40, 0x00, 0x64, 0xff, 0xdb, 0x01,
   0x00, 0x00, 0x00, 0x00, 0xea, 0x77, 0xbf, 0x00, 0x00, 0x00, 0x00, 0xc0,
   0xff, 0xdd, 0x17, 0x00, 0x00, 0x00, 0x00, 0x50, 0xbb, 0x6f, 0x05, 0x00,
   0x00, 0x00, 0x00, 0xd4, 0xff, 0xfa, 0x05, 0x00, 0x00, 0x00, 0x80, 0xfa,
   0x56, 0x5f, 0x01, 0x00, 0x00, 0x00, 0xa0, 0xb6, 0xfb, 0x36, 0x00, 0x00,
   0x00, 0x00, 0x50, 0xfd, 0xaa, 0x0f, 0x00, 0x00, 0x00, 0x00, 0xf4, 0x4f,
   0xf4, 0x23, 0x00, 0x00, 0x00, 0x00, 0x6a, 0x0b, 0xd1, 0x0a, 0x00, 0x00,
   0x00, 0x80, 0xba, 0x24, 0x7e, 0x00, 0x00, 0x00, 0x00, 0x40, 0x6f, 0xa1,
   0x5b, 0x00, 0x00, 0x00, 0x00, 0x50, 0x15, 0xa0, 0x0e, 0x00, 0x00, 0x00,
   0x00, 0xd0, 0x00, 0xd0, 0x0f, 0x00, 0x00, 0x00, 0x00, 0xb0, 0x00, 0xea,
   0x01, 0x00, 0x00, 0x00, 0x00, 0x20, 0x00, 0xad, 0x01, 0x00, 0x00, 0x00,
   0x00, 0x00, 0x00, 0xf9, 0x00, 0x00, 0x00, 0x00, 0x00, 0x00, 0xa0, 0x56,
   0x00, 0x00, 0x00, 0x00, 0x00, 0x00, 0xa0, 0x1e, 0x00, 0x00, 0x00, 0x00,
   0x00, 0x00, 0xa8, 0x0b, 0x00, 0x00, 0x00, 0x00, 0x00, 0x00, 0xa8, 0x0e,
   0x00, 0x00, 0x00, 0x00, 0x00, 0x00, 0xaa, 0x03, 0x00, 0x00, 0x00, 0x00,
   0x00, 0x00, 0xd5, 0x02, 0x00, 0x00, 0x00, 0x00, 0x00, 0x00, 0xed, 0x00,
   0x00, 0x00, 0x00, 0x00, 0x00, 0x80, 0x36, 0x00, 0x00, 0x00, 0x00, 0x00,
   0x00, 0x40, 0x1d, 0x00, 0x00, 0x00, 0x00, 0x00, 0x00, 0xa0, 0x1b, 0x00,
   0x00, 0x00, 0x00, 0x00, 0x00, 0x70, 0x06, 0x00, 0x00, 0x00, 0x00, 0x00,
   0x00, 0xa8, 0x15, 0x00, 0x00, 0x00, 0x00, 0x00, 0x00, 0x5c, 0x00, 0x00,
   0x00, 0x00, 0x00, 0x00, 0x00, 0xaa, 0x00, 0x00, 0x00, 0x00, 0x00, 0x00,
   0x00, 0x5d, 0x00, 0x00, 0x00, 0x00, 0x00, 0x00, 0x80, 0x16, 0x00, 0x00,
   0x00, 0x00, 0x00, 0x00, 0x80, 0x0d, 0x00, 0x00, 0x00, 0x00, 0x00, 0x00,
   0x80, 0x06, 0x00, 0x00, 0x00, 0x00, 0x00, 0x00, 0xc0, 0x25, 0x00, 0x00,
   0x00, 0x00, 0x00, 0x00, 0x60, 0x05, 0x00, 0x00, 0x00, 0x00, 0x00, 0x00,
   0xd0, 0x02, 0x00, 0x00, 0x00, 0x00, 0x00, 0x00, 0x30, 0x01, 0x00, 0x00,
   0x00, 0x00, 0x00, 0x00, 0x68, 0x01, 0x00, 0x00, 0x00, 0x00, 0x00, 0x00,
   0x9c, 0x00, 0x00, 0x00, 0x00, 0x00, 0x00, 0x00, 0x28, 0x00, 0x00, 0x00,
   0x00, 0x00, 0x00, 0x00, 0x5e, 0x00, 0x00, 0x00, 0x00, 0x00, 0x00, 0x00,
   0x14, 0x00, 0x00, 0x00, 0x00, 0x00, 0x00, 0x00, 0x16, 0x00, 0x00, 0x00,
   0x00, 0x00, 0x00, 0x00, 0x00, 0x00, 0x00, 0x00, 0x00, 0x00, 0x00, 0x00,
   0x00, 0x00, 0x00, 0x00, 0x00, 0x00, 0x00, 0x00, 0x00, 0x00, 0x00, 0x00,
   0x00, 0x00, 0x00, 0x00, 0x00, 0x00, 0x00, 0x00, 0x00, 0x00, 0x00, 0x00,
   0x00, 0x00, 0x00, 0x00, 0x00, 0x00, 0x00, 0x00, 0x00, 0x00, 0x00, 0x00,
   0x00, 0x00, 0x00, 0x00, 0x00, 0x00, 0x00, 0x00, 0x00, 0x00, 0x00, 0x00,
   0x00, 0x00, 0x00, 0x00, 0x00, 0x00, 0x00, 0x00 };
