#define FILL_width 40
#define FILL_height 40
static char FILL_bits[] = {
   0x0c, 0x0c, 0x0c, 0x0c, 0x0c, 0x02, 0x02, 0x02, 0x02, 0x02, 0x01, 0x01,
   0x01, 0x01, 0x01, 0x81, 0x80, 0x80, 0x80, 0x80, 0x40, 0xc0, 0x40, 0xc0,
   0x40, 0x60, 0x20, 0x60, 0x20, 0x60, 0x10, 0x30, 0x10, 0x30, 0x10, 0x18,
   0x18, 0x18, 0x18, 0x18, 0x04, 0x04, 0x04, 0x0c, 0x04, 0x02, 0x06, 0x02,
   0x02, 0x02, 0x03, 0x01, 0x01, 0x03, 0x02, 0x80, 0x81, 0x80, 0x80, 0x81,
   0x40, 0x40, 0xc0, 0x80, 0xc0, 0x60, 0x20, 0x60, 0x60, 0x20, 0x10, 0x10,
   0x30, 0x10, 0x30, 0x18, 0x08, 0x18, 0x08, 0x08, 0x04, 0x04, 0x0c, 0x08,
   0x04, 0x06, 0x02, 0x06, 0x06, 0x02, 0x01, 0x01, 0x03, 0x02, 0x01, 0x81,
   0x80, 0x01, 0x81, 0x80, 0x40, 0xc0, 0xc0, 0x40, 0xc0, 0x20, 0x60, 0x40,
   0x40, 0x60, 0x10, 0x30, 0x10, 0x30, 0x30, 0x08, 0x18, 0x10, 0x10, 0x18,
   0x04, 0x0c, 0x0c, 0x0c, 0x0c, 0x02, 0x06, 0x04, 0x02, 0x02, 0x01, 0x03,
   0x03, 0x02, 0x01, 0x81, 0x01, 0x81, 0x01, 0x81, 0xc0, 0xc0, 0x80, 0xc0,
   0x80, 0x60, 0x40, 0x40, 0x20, 0x60, 0x30, 0x30, 0x20, 0x20, 0x10, 0x08,
   0x10, 0x10, 0x18, 0x18, 0x0c, 0x0c, 0x08, 0x04, 0x04, 0x02, 0x04, 0x04,
   0x02, 0x02, 0x01, 0x03, 0x02, 0x01, 0x01, 0x81, 0x00, 0x81, 0x80, 0x80,
   0x40, 0x80, 0xc0, 0xc0, 0xc0, 0x60, 0x60, 0x20, 0x20, 0x20, 0x10, 0x20,
   0x30, 0x30, 0x30, 0x18, 0x18, 0x08, 0x08, 0x18};
