#define zoomframe_width 16
#define zoomframe_height 16
#define zoomframe_x_hot 0
#define zoomframe_y_hot 0
static char zoomframe_bits[] = {
   0x01, 0x00, 0x07, 0x00, 0x0f, 0x00, 0x1f, 0x00, 0x3f, 0x00, 0x7f, 0x00,
   0x07, 0x00, 0xa3, 0xaa, 0x01, 0x00, 0x20, 0x80, 0x00, 0x00, 0x20, 0x80,
   0x00, 0x00, 0x20, 0x80, 0x00, 0x00, 0xa0, 0xaa};
