#define zoomin_width 16
#define zoomin_height 16
#define zoomin_x_hot 1
#define zoomin_y_hot 1
static char zoomin_bits[] = {
   0xf8, 0x00, 0xfc, 0x01, 0x06, 0x03, 0x23, 0x06, 0x23, 0x06, 0xfb, 0x06,
   0x23, 0x06, 0x23, 0x06, 0x06, 0x03, 0xfc, 0x03, 0xf8, 0x0c, 0x00, 0x1c,
   0x00, 0x38, 0x00, 0x70, 0x00, 0xe0, 0x00, 0x40};
